<?xml version="1.0" encoding="utf-8"?>
<!-- Generator: Adobe Illustrator 19.1.0, SVG Export Plug-In . SVG Version: 6.00 Build 0)  -->
<svg version="1.1"
	 id="svg2" xmlns:rdf="http://www.w3.org/1999/02/22-rdf-syntax-ns#" xmlns:svg="http://www.w3.org/2000/svg" xmlns:sodipodi="http://sodipodi.sourceforge.net/DTD/sodipodi-0.dtd" xmlns:dc="http://purl.org/dc/elements/1.1/" xmlns:inkscape="http://www.inkscape.org/namespaces/inkscape" xmlns:cc="http://creativecommons.org/ns#" sodipodi:docname="Symantec_logo.svg" inkscape:version="0.47 r22583"
	 xmlns="http://www.w3.org/2000/svg" xmlns:xlink="http://www.w3.org/1999/xlink" x="0px" y="0px" viewBox="-577 361 95 30"
	 style="enable-background:new -577 361 95 30;" xml:space="preserve">
<style type="text/css">
	.st0{fill:#FDB511;}
	.st1{fill:#FFFFFF;}
</style>
<sodipodi:namedview  gridtolerance="10" inkscape:zoom="7.6057972" showgrid="false" guidetolerance="10" objecttolerance="10" borderopacity="1" inkscape:cy="17.421254" inkscape:cx="50.206714" pagecolor="#ffffff" bordercolor="#666666" id="namedview4" inkscape:current-layer="svg2" inkscape:window-maximized="0" inkscape:window-y="35" inkscape:window-x="88" inkscape:window-height="905" inkscape:window-width="1116" inkscape:pageshadow="2" inkscape:pageopacity="0">
	<inkscape:grid  type="xygrid" enabled="true" empspacing="5" visible="true" id="grid3888" snapvisiblegridlinesonly="true">
		</inkscape:grid>
</sodipodi:namedview>
<path id="rect3886" class="st0" d="M-551.8,363.8v0.8h0.8v-0.8H-551.8z M-551.8,365.3v0.8h0.8v-0.8H-551.8z M-554.1,366.1v0.8h0.8
	v-0.8H-554.1z"/>
<path id="path3095" class="st0" d="M-563.9,366.6c-6,0-10.8,4.8-10.8,10.8s4.8,10.8,10.8,10.8s10.8-4.8,10.8-10.8
	S-557.9,366.6-563.9,366.6z M-563.9,370.1c4.1,0,7.3,3.3,7.3,7.3s-3.3,7.3-7.3,7.3c-4.1,0-7.3-3.3-7.3-7.3S-567.9,370.1-563.9,370.1
	z"/>
<g id="text58">
	<path id="path2820" class="st1" d="M-546.8,383.1c-1.5,0-2.8-0.4-3.9-1.2l1-1.6c0.8,0.6,1.8,0.9,2.8,0.9c0.5,0,0.9-0.1,1.2-0.3
		c0.3-0.2,0.5-0.5,0.5-0.9c0-0.1,0-0.2,0-0.3c0-0.1-0.1-0.2-0.1-0.2c0-0.1-0.1-0.1-0.1-0.2c-0.1-0.1-0.1-0.1-0.2-0.2
		c-0.1-0.1-0.2-0.1-0.3-0.1c-0.1,0-0.2-0.1-0.3-0.2c-0.2-0.1-0.3-0.1-0.4-0.1c-0.1,0-0.3-0.1-0.5-0.2c-0.2-0.1-0.4-0.1-0.5-0.2
		c-0.4-0.1-0.7-0.3-0.9-0.4c-0.3-0.1-0.5-0.3-0.8-0.6c-0.3-0.2-0.5-0.5-0.6-0.9c-0.1-0.4-0.2-0.8-0.2-1.3c0-0.9,0.3-1.7,1-2.2
		c0.7-0.5,1.5-0.8,2.6-0.8c1.3,0,2.4,0.2,3.2,0.7l-0.8,1.7c-0.8-0.4-1.5-0.5-2.3-0.5c-1,0-1.6,0.3-1.6,1c0,0.2,0,0.3,0.1,0.4
		c0.1,0.1,0.1,0.2,0.2,0.3c0.1,0.1,0.2,0.2,0.4,0.2c0.2,0.1,0.3,0.1,0.5,0.2c0.1,0,0.3,0.1,0.6,0.2c0.1,0,0.2,0.1,0.3,0.1
		c0.3,0.1,0.7,0.2,0.9,0.3s0.5,0.2,0.8,0.4c0.3,0.2,0.5,0.4,0.7,0.6c0.2,0.2,0.3,0.5,0.5,0.9c0.1,0.4,0.2,0.7,0.2,1.2
		c0,0.9-0.3,1.7-1,2.3C-544.7,382.8-545.6,383.1-546.8,383.1"/>
	<path id="path2822" class="st1" d="M-539.3,383.3l-2.8-8.1h2.4l1.5,5.7l1.2-5.7h2.2l-2.3,7.9c-0.5,1.8-1.7,2.7-3.4,2.7
		c-0.4,0-0.8,0-1.3-0.1l0.2-1.6c0.4,0,0.7,0.1,0.8,0.1c0.4,0,0.7-0.1,1-0.2C-539.7,383.8-539.5,383.6-539.3,383.3"/>
	<path id="path2824" class="st1" d="M-527.4,376.2c0.8-0.8,1.5-1.2,2.4-1.2c0.8,0,1.3,0.3,1.7,0.8c0.3,0.5,0.5,1.2,0.5,2v5.1h-2.3
		v-5.1c0-0.6-0.2-0.9-0.7-0.9c-0.4,0-0.8,0.2-1.3,0.6v5.4h-2.3v-5.1c0-0.6-0.2-0.9-0.7-0.9c-0.4,0-0.9,0.2-1.3,0.7v5.4h-2.3v-7.8
		h1.4l0.5,1.2c0.8-0.9,1.6-1.4,2.5-1.4S-527.8,375.4-527.4,376.2"/>
	<path id="path2826" class="st1" d="M-517.2,378v-0.2c0-0.3-0.1-0.6-0.2-0.8c-0.2-0.2-0.4-0.2-0.8-0.2c-0.6,0-1.3,0.2-2.2,0.6
		l-0.8-1.5c1-0.6,2-0.9,3.1-0.9c1,0,1.8,0.3,2.3,0.8c0.5,0.5,0.8,1.2,0.8,2.1v5h-1.4c-0.3-0.5-0.4-0.8-0.4-0.8c-0.7,0.7-1.5,1-2.3,1
		c-0.7,0-1.3-0.2-1.7-0.6c-0.5-0.4-0.7-1-0.7-1.7c0-0.8,0.3-1.4,0.8-1.8C-520,378.6-518.9,378.2-517.2,378 M-517.2,381v-1.6
		c-1,0.2-1.6,0.4-1.8,0.7c-0.1,0.1-0.2,0.4-0.2,0.6c0,0.5,0.3,0.8,0.8,0.8C-518,381.5-517.6,381.4-517.2,381"/>
	<path id="path2828" class="st1" d="M-513.1,383v-7.8h1.4l0.4,1.2c0.8-0.9,1.7-1.4,2.6-1.4c1.5,0,2.2,0.9,2.2,2.8v5.1h-2.3v-5.1
		c0-0.6-0.3-0.9-0.8-0.9c-0.5,0-0.9,0.2-1.3,0.7v5.4H-513.1"/>
	<path id="path2830" class="st1" d="M-504.1,376.8h-1.1v-1.6h1.2l0.4-2.2h1.9v2.2h1.6v1.6h-1.6v3.7c0,0.3,0.1,0.6,0.2,0.7
		s0.3,0.2,0.7,0.2c0.2,0,0.5-0.1,0.8-0.1l0.3,1.6c-0.6,0.2-1.1,0.3-1.7,0.3c-1.6,0-2.4-0.8-2.4-2.5V376.8"/>
	<path id="path2832" class="st1" d="M-496.6,379.8c0.1,0.5,0.2,0.9,0.4,1.2c0.2,0.2,0.6,0.4,1.1,0.4c0.3,0,0.5,0,0.8-0.1
		c0.3-0.1,0.5-0.2,0.6-0.2c0.1-0.1,0.3-0.2,0.6-0.3l0.9,1.4c-0.3,0.2-0.6,0.4-0.8,0.5c-0.2,0.1-0.5,0.2-0.9,0.3
		c-0.4,0.1-0.9,0.2-1.4,0.2c-1.1,0-2-0.4-2.7-1c-0.7-0.7-1-1.7-1-2.9c0-1.2,0.3-2.2,1-3c0.6-0.8,1.5-1.2,2.6-1.2
		c1.1,0,2,0.4,2.6,1.2c0.6,0.8,0.9,1.8,0.9,3v0.6H-496.6 M-496.6,378.4h2.4c0-1.2-0.4-1.8-1.1-1.8c-0.4,0-0.6,0.1-0.8,0.4
		C-496.4,377.4-496.5,377.8-496.6,378.4"/>
	<path id="path2834" class="st1" d="M-487,383.1c-1.2,0-2.2-0.4-2.8-1.1c-0.6-0.7-0.9-1.7-0.9-2.9s0.3-2.2,1-2.9
		c0.7-0.8,1.6-1.2,2.8-1.2c1,0,1.9,0.3,2.6,0.9l-1.1,1.5c-0.3-0.2-0.5-0.3-0.7-0.4c-0.2-0.1-0.5-0.1-0.8-0.1c-0.9,0-1.4,0.7-1.4,2.2
		c0,1.4,0.5,2.2,1.4,2.2c0.5,0,1-0.2,1.5-0.6l1.1,1.4C-485.1,382.8-485.9,383.1-487,383.1"/>
</g>
<path id="path3876" sodipodi:nodetypes="cccssssccccc" class="st1" d="M-560.8,372.1c-2,2.4-2.5,3.5-3.2,5.5c-0.9-1.8-1.9-3-3.8-3.8
	c-0.3-0.1-0.5-0.1-0.8,0.2s-0.1,0.6,0.2,1c0.7,0.9,1.6,1.8,2.1,2.8c0.7,1.2,1.5,3.2,1.8,3.7c0.2,0.4,0.8,0.6,1,0.6
	c1.1-0.1,1.1-0.7,1.3-1.7c0.3-1.6,0.8-3.3,2.9-5.2v-3H-560.8z"/>
<path id="rect3951" class="st1" d="M-552.6,364.6v0.8h0.8v-0.8H-552.6z M-552.6,365.3h-1.5v0.8h1.5V365.3z M-554.1,366.1h-0.8v1.5
	h0.8V366.1z M-554.1,367.6v0.8h0.8v-0.8H-554.1z M-553.3,367.6h0.8v-0.8h-0.8V367.6z M-554.1,368.3h-0.8v0.8h-0.8v-0.8h-1.5v0.8
	h-0.8v0.8h0.8v0.8h-0.8v-0.8h-0.8v0.8h-0.8v0.8h-0.8v3h1.5v-0.8h0.8v-0.8h0.8v-0.8h-0.8v-0.8h0.8v0.8h0.8v-0.8h0.8v-0.8h0.8v-0.8
	h0.8V368.3z M-555.6,368.3h0.8v-0.8h-0.8V368.3z M-555.6,367.6v-0.8h-0.8v0.8H-555.6z"/>
</svg>
