<?xml version="1.0" encoding="utf-8"?>
<!-- Generator: Adobe Illustrator 19.1.0, SVG Export Plug-In . SVG Version: 6.00 Build 0)  -->
<svg version="1.1" id="Layer_1" xmlns="http://www.w3.org/2000/svg" xmlns:xlink="http://www.w3.org/1999/xlink" x="0px" y="0px"
	 viewBox="-444 301 360.2 150" style="enable-background:new -444 301 360.2 150;" xml:space="preserve">
<style type="text/css">
	.st0{fill:#FFFFFF;}
	.st1{fill:#EEB111;}
</style>
<polygon class="st0" points="-378.1,401.4 -390.8,353 -403.6,401.4 -414,401.4 -431.9,334.8 -421.6,334.8 -408.9,383.2 -396,334.8 
	-385.8,334.8 -372.9,383.2 -360.1,334.8 -349.8,334.8 -367.7,401.4 "/>
<path class="st0" d="M-345.1,335l10.3-0.9v16.3l-0.2,6.1h0.4c4.8-1.8,8.6-2.7,13.3-2.7c8.3,0,14,3.8,14,18.4v29.1h-10.3v-28.3
	c0-8.8-4.2-9.9-9-9.9c-3,0-5.5,0.7-8.2,1.4v36.7h-10.3V335z"/>
<path class="st0" d="M-293.1,335.7c5.3,0,6.2,3.2,6.2,6.7c0,3.5-1.1,6.8-6.2,6.8s-6.1-3.2-6.1-6.8
	C-299.2,338.8-298.3,335.7-293.1,335.7 M-298.3,354.6h10.3v46.9h-10.3V354.6z"/>
<path class="st0" d="M-279.3,354.6h7l1.4,3.8h0.7c2.7-2.4,7-4.5,12.7-4.5c0.7,0,1.4,0,2.2,0.1v10.3c-1.9-0.3-3.8-0.6-5.8-0.6
	c-2.8,0-5.1,0.7-7.8,1.9v35.8h-10.3V354.6z"/>
<polygon class="st0" points="-251,401.4 -251,335 -240.7,334.1 -240.7,401.4 "/>
<path class="st0" d="M-167.4,353.9c14.6,0,20.2,8.8,20.2,24.3c0,14.6-5.2,24.2-20.4,24.2c-15.2,0-20.5-9.5-20.5-24.2
	C-188.1,362.7-182,353.9-167.4,353.9 M-157.6,378.2c0-8.9-1.4-16.1-9.7-16.1c-8.3,0-10.4,7-10.4,16.1c0,8.5,1.7,15.8,9.9,15.8
	C-159.5,394.1-157.6,387.1-157.6,378.2"/>
<path class="st0" d="M-121.2,353.9c14.6,0,20.2,8.8,20.2,24.3c0,14.6-5.2,24.2-20.4,24.2c-15.2,0-20.5-9.5-20.5-24.2
	C-141.9,362.7-135.8,353.9-121.2,353.9 M-111.5,378.2c0-8.9-1.4-16.1-9.7-16.1c-8.3,0-10.4,7-10.4,16.1c0,8.5,1.7,15.8,9.9,15.8
	C-113.3,394.1-111.5,387.1-111.5,378.2"/>
<polygon class="st0" points="-94.1,401.4 -94.1,335 -83.8,334.1 -83.8,401.4 "/>
<path class="st0" d="M-194.3,422.9c-0.7,0.1-1.8,0.4-2.9,0.4c-3.6,0-5.6-1.5-5.6-5.7c0-4.3,2.7-5.9,6.1-5.9c1,0,1.7,0.2,2.3,0.4v2
	c-0.4-0.1-1.5-0.3-2.3-0.3c-2,0-3.5,0.3-3.5,3.7c0,3.3,1.6,3.7,3.4,3.7c0.9,0,1.7-0.2,2.6-0.4L-194.3,422.9L-194.3,422.9z"/>
<path class="st0" d="M-191.9,417.4c0-4.3,2-5.8,5.1-5.8c3.1,0,5.1,1.6,5.1,5.8c0,4.2-2,5.8-5.1,5.8
	C-189.9,423.2-191.9,421.7-191.9,417.4 M-184.3,417.4c0-3-1-3.9-2.5-3.9c-1.6,0-2.6,1.1-2.6,3.9c0,2.8,1,3.9,2.6,3.9
	C-185.3,421.4-184.3,420.4-184.3,417.4"/>
<path class="st0" d="M-178.7,411.8h3.1c3.4,0,4.8,0.9,4.8,3.5c0,2.1-1.1,2.7-2.3,3.1v0.2l0.3,0.1c1.2,0.4,1.8,2.7,2.5,4.1v0.3h-2.6
	c-0.5-1.5-1.1-3.8-2.2-4.1h-1.2v4.1h-2.4L-178.7,411.8L-178.7,411.8z M-175.6,417.2c1.2,0,2.2-0.4,2.2-1.8c0-1.4-0.8-1.7-2.2-1.7
	h-0.8v3.4C-176.3,417.2-175.6,417.2-175.6,417.2z"/>
<path class="st0" d="M-167.5,411.8h3c3.3,0,4.8,0.8,4.8,3.6c0,2.9-1.9,3.7-4.3,3.7h-1.2v3.9h-2.4V411.8z M-165.1,417.5h0.9
	c1.4,0,2.1-0.5,2.1-1.9c0-1.4-0.7-1.8-2-1.8h-1L-165.1,417.5L-165.1,417.5z"/>
<path class="st0" d="M-157.6,417.4c0-4.3,2-5.8,5.1-5.8c3.1,0,5.1,1.6,5.1,5.8c0,4.2-2,5.8-5.1,5.8
	C-155.6,423.2-157.6,421.7-157.6,417.4 M-149.9,417.4c0-3-1-3.9-2.5-3.9c-1.6,0-2.6,1.1-2.6,3.9c0,2.8,1,3.9,2.6,3.9
	C-150.9,421.4-149.9,420.4-149.9,417.4"/>
<path class="st0" d="M-144.3,411.8h3.1c3.4,0,4.8,0.9,4.8,3.5c0,2.1-1.1,2.7-2.3,3.1v0.2l0.3,0.1c1.2,0.4,1.8,2.7,2.5,4.1v0.3h-2.6
	c-0.5-1.5-1.1-3.8-2.2-4.1h-1.2v4.1h-2.4L-144.3,411.8L-144.3,411.8z M-141.2,417.2c1.2,0,2.2-0.4,2.2-1.8c0-1.4-0.8-1.7-2.2-1.7
	h-0.8v3.4C-141.9,417.2-141.2,417.2-141.2,417.2z"/>
<path class="st0" d="M-134.1,422.8l3.9-11.1h2.3l4.1,11.1v0.3h-2.6l-0.9-2.5h-3.5l-0.8,2.5h-2.6L-134.1,422.8L-134.1,422.8z
	 M-127.7,418.9l-1.1-3.9l-0.1-0.6h-0.2l-0.1,0.6l-1.2,3.9H-127.7z"/>
<polygon class="st0" points="-119.6,413.7 -122.7,413.8 -122.7,411.8 -114.1,411.8 -114.1,413.8 -117.2,413.7 -117.2,423.1 
	-119.6,423.1 "/>
<rect x="-111.5" y="411.8" class="st0" width="2.4" height="11.3"/>
<path class="st0" d="M-106.3,417.4c0-4.3,2-5.8,5.1-5.8c3.1,0,5.1,1.6,5.1,5.8c0,4.2-2,5.8-5.1,5.8
	C-104.3,423.2-106.3,421.7-106.3,417.4 M-98.7,417.4c0-3-1-3.9-2.5-3.9c-1.6,0-2.6,1.1-2.6,3.9c0,2.8,1,3.9,2.6,3.9
	C-99.7,421.4-98.7,420.4-98.7,417.4"/>
<polygon class="st0" points="-93.1,411.8 -91,411.8 -86.9,417.7 -86.3,418.7 -86.2,418.7 -86.2,411.8 -83.8,411.8 -83.8,423.1 
	-85.9,423.1 -90,416.9 -90.5,416.1 -90.7,416.1 -90.7,423.1 -93.1,423.1 "/>
<path class="st1" d="M-164.9,303.5c-8.6-9.3-40.7,8.4-73.5,35.9v3.6c32.1-27.3,62.3-43.3,69.3-35.8c3.5,3.8,0.4,15.8-7.6,29.7
	c-1.2,0.5-2.4,1.6-3.6,3.4c-10.2,14.9-25.1,33-41.3,48.6c-41.8,40.1-82.2,64.5-90.4,55.6c-4.7-5,3-21.3,17-40.7h-3.9
	c-14.8,20.6-22.8,38.3-16.9,44.7c10.3,11.1,57.1-16.1,98.8-56.1c18.9-18.1,33.2-33.5,42.1-47.2c2.6-3.9,2.7-6.7,1.6-8
	C-163.4,321.3-159.8,309-164.9,303.5"/>
<path class="st0" d="M-222,365.3c2.5-0.9,5.1-1.3,7.7-1.3c5.3,0,8.8,1.6,10,6.8c2.7-3,5.3-6,7.7-9c-2.9-5.4-7.5-7.9-13-7.9
	c-5.2,0-10.4,2.4-13.5,4.1h-0.5l-0.8-3.4h-7.8v44.1c3.3-3,6.6-6,9.9-9.2C-222,379.5-222,374.6-222,365.3"/>
<path class="st0" d="M-204,379.5c-0.7,10.6-4.7,13.5-10.5,13.5c-1.2,0-2.2,0-3.2,0c-4.8,4.6-9.7,9.1-14.6,13.3v17.6l10.3-1.1v-21.5
	h0.3c2.9,0.6,6.1,1,9,1c12,0,19.2-8.1,19.2-24.5c0-3.1-0.2-5.9-0.7-8.4C-197.2,372.5-200.5,375.9-204,379.5"/>
<path class="st0" d="M-361.3,322.5c0.5-0.4,0.8-0.8,0.9-1.5c0.1-0.7-0.3-1.1-0.9-1.4c-1.1-0.4-2.6,0-3.6,0.3
	c-0.5,0.2-1.1,0.4-1.7,0.5c-1.2,0.3-2.4,0.7-3.8,0.9c-1.3,0.3-2.7,0.5-4.2,0.7c-1.4,0.2-2.9,0.3-4.4,0.4c-1.5,0.1-3,0.2-4.5,0.2
	c-0.4,0-0.9,0-1.3,0c-1.3,0-2.7,0-4-0.1c-1.9-0.1-3.7-0.2-5.4-0.3c-1.8-0.1-3.4-0.3-5-0.5c-1.6-0.2-3.1-0.4-4.5-0.7
	c-1.4-0.3-2.7-0.5-3.8-0.9c-1.1-0.3-2-0.6-2.9-0.9c-0.4-0.2-0.9-0.3-1.3-0.3c-0.4,0-1,0.1-1.2,0.5c-0.2,0.4,0,0.9,0.3,1.2
	c0.3,0.3,0.7,0.6,1.1,0.8c0.2,0.1,0.4,0.2,0.6,0.3c1,0.4,2,0.7,3.1,1c1.1,0.3,2.3,0.6,3.6,0.9c1.3,0.3,2.6,0.5,4,0.7
	c1.4,0.2,2.9,0.4,4.4,0.6c1.5,0.2,3.1,0.3,4.7,0.4c1.6,0.1,3.2,0.2,4.9,0.2c1.7,0,3.3,0,5,0c1.7-0.1,3.3-0.1,4.9-0.3
	c1.2-0.1,2.4-0.2,3.5-0.3c0.3,0,0.6-0.1,0.9-0.1c0,0.6,0.8,1,1.2,1.1c0.6,0.2,1.2,0.2,1.8,0.2c2.5-0.2,5-0.4,7.4-0.7
	c2.4-0.3,4.8-0.7,7-1.1c2.2-0.4,4.3-0.9,6.2-1.4c1.9-0.5,3.7-1.1,5.2-1.7c1.5-0.6,2.9-1.2,4-1.9c1.1-0.7,2-1.4,2.7-2.1
	c0.7-0.7,1.1-1.5,1.3-2.2c0.2-0.8,0.1-1.5-0.2-2.3c-0.3-0.8-0.9-1.5-1.7-2.2c-0.8-0.7-1.9-1.5-3.3-2.1c-1.3-0.7-2.9-1.4-4.7-2
	c-1.8-0.6-3.8-1.2-6-1.8c-2.2-0.5-4.6-1-7.2-1.5c-2.6-0.4-5.3-0.8-8.2-1.1c-2.9-0.3-5.8-0.6-8.9-0.8c-3.1-0.2-6.2-0.3-9.4-0.4
	c-3.2,0-6.4,0-9.5,0.1c-3.2,0.1-6.3,0.3-9.4,0.5c-3.1,0.2-6.1,0.6-9,0.9c-2.9,0.4-5.7,0.8-8.4,1.4c-2.6,0.5-5.1,1.1-7.4,1.7
	c-2.3,0.6-4.3,1.3-6.2,2.1c-1.8,0.7-3.4,1.5-4.8,2.3c-1.3,0.8-2.4,1.7-3.2,2.5c-0.8,0.9-1.3,1.8-1.4,2.7c-0.2,0.9-0.1,1.8,0.4,2.7
	c0.4,0.9,1.2,1.8,2.2,2.7c1,0.9,2.4,1.7,4,2.6c1.6,0.8,3.5,1.6,5.7,2.4c2.2,0.7,4.6,1.4,7.2,2.1c2.6,0.6,5.5,1.2,8.6,1.7
	c3.1,0.5,6.3,1,9.7,1.3c3.4,0.4,6.9,0.7,10.5,0.9c0.5,0,1,0.1,1.6,0.1c0.5,0,0.9,0,1.4-0.2c0.4-0.2,0.8-0.5,0.9-1
	c0-0.5-0.4-0.9-0.8-1.1c-0.4-0.2-0.9-0.3-1.4-0.3c-1.8-0.1-3.7-0.3-5.5-0.4c-2.3-0.2-4.5-0.5-6.7-0.8c-2.2-0.3-4.2-0.6-6.2-1
	c-1.9-0.4-3.8-0.8-5.5-1.2c-1.4-0.4-2.8-0.7-4-1.2c-3.4-1.1-6.1-2.4-8-3.7c-0.8-0.6-1.5-1.2-2-1.8c-0.5-0.6-0.9-1.2-1-1.8
	c-0.2-0.6-0.2-1.2-0.1-1.8c0.1-0.6,0.4-1.2,0.9-1.8c0.5-0.6,1.1-1.2,1.8-1.7c0.7-0.6,1.6-1.1,2.7-1.6c1-0.5,2.2-1,3.5-1.5
	c0.7-0.3,1.5-0.5,2.2-0.8c1.4-0.4,2.9-0.9,4.6-1.2c0.9-0.2,1.8-0.4,2.7-0.6c1.7-0.3,3.5-0.7,5.4-0.9c1.9-0.3,3.8-0.5,5.8-0.7
	c2-0.2,4-0.4,6-0.5c2-0.1,4.1-0.2,6.2-0.2c2.1,0,4.1-0.1,6.2,0c2,0,4.1,0.1,6.1,0.2c2,0.1,3.9,0.3,5.8,0.4c1.9,0.2,3.7,0.4,5.5,0.6
	c1.8,0.2,3.4,0.5,5,0.8c3.2,0.6,6,1.3,8.4,2.2c2.3,0.8,4.2,1.7,5.6,2.6c1.4,0.9,2.2,1.9,2.6,2.9c0.3,1,0.1,2-0.6,2.9
	c-0.7,0.9-1.9,1.8-3.5,2.7c-1.6,0.8-3.7,1.6-6.1,2.3C-357.7,321.8-359.4,322.2-361.3,322.5"/>
<path class="st0" d="M-413.1,314.1c-0.5,0.2-1,0.3-1.6,0.4c-0.5,0-1.2-0.1-1.4-0.5c-0.3-0.5,0.2-1.1,0.5-1.4
	c0.4-0.4,0.8-0.6,1.3-0.9c6.8-3.2,16-4.3,23.3-4.3h0.8c2.7,0,5.3,0.1,7.9,0.4c2.4,0.2,4.8,0.5,6.9,0.9c2.1,0.4,3.9,0.8,5.5,1.4
	c1.5,0.5,2.8,1.1,3.7,1.7c0.9,0.6,1.5,1.2,1.8,1.8c0.1,0.2,0.2,0.5,0.2,0.7c0,0.4-0.1,0.7-0.3,1c-0.4,0.6-1,1.1-2,1.6
	c-0.9,0.5-2.1,0.9-3.5,1.3c-1.3,0.4-2.9,0.7-4.6,1c-1.6,0.3-3.4,0.4-5.2,0.6c-0.9,0.1-1.8,0.1-2.7,0.1c-0.7,0-1.4,0-2.1,0
	c-0.2,0-0.3,0-0.5,0c-0.8,0-1.6,0-2.4-0.1c-0.8,0-1.5-0.1-2.3-0.2c-1.4-0.1-2.8-0.3-4-0.5c-1.2-0.2-2.2-0.5-3.1-0.8
	c-0.8-0.3-1.5-0.6-2-0.9c-0.5-0.3-0.8-0.6-0.9-1c-0.1-0.3-0.1-0.6,0.1-0.9c0.2-0.3,0.5-0.5,1-0.8c0.4-0.2,1-0.4,1.6-0.6
	c0.6-0.2,1.2-0.3,2-0.4c0.6-0.1,1.3-0.2,2.1-0.2c0.5,0,1,0,1.5,0c0.5,0,1,0,1.5,0c0.7,0,1.4,0.1,2.1,0.2c0.7,0.1,1.4,0.3,2,0.4
	c0.6,0.2,1.2,0.4,1.6,0.6c0.5,0.2,0.8,0.5,1,0.8c0.2,0.3,0.2,0.6,0.1,0.9c-0.1,0.2-0.2,0.4-0.4,0.6c0.2,0,0.4,0,0.7,0
	c0.1,0,0.1,0,0.2,0c0.5,0,0.9-0.1,1.4-0.2c0.4-0.1,0.9-0.2,1.3-0.3c0.4-0.1,0.8-0.2,1.2-0.4c0.4-0.1,0.7-0.3,1-0.5
	c0.3-0.2,0.5-0.3,0.7-0.5c0.2-0.2,0.3-0.4,0.4-0.6c0.1-0.2,0.1-0.4,0-0.6c-0.1-0.2-0.2-0.4-0.4-0.6c-0.2-0.2-0.5-0.4-0.8-0.6
	c-0.3-0.2-0.7-0.4-1.2-0.6c-0.5-0.2-1-0.4-1.6-0.5c-0.6-0.2-1.2-0.3-2-0.5c-0.7-0.1-1.5-0.3-2.3-0.4c-0.8-0.1-1.7-0.2-2.6-0.2
	c-0.9-0.1-1.8-0.1-2.7-0.1c-0.1,0-0.2,0-0.3,0C-398,310.3-406.5,311.3-413.1,314.1"/>
</svg>
